<svg width="56" height="56" viewBox="0 0 56 56" fill="none" xmlns="http://www.w3.org/2000/svg">
<rect x="0.5" y="0.5" width="55" height="55" rx="19.5" stroke="currentColor"/>
<path d="M21 11.3333H35C40.3334 11.3333 44.6667 15.6666 44.6667 20.9999V34.9999C44.6667 37.5637 43.6483 40.0224 41.8354 41.8353C40.0226 43.6481 37.5638 44.6666 35 44.6666H21C15.6667 44.6666 11.3334 40.3333 11.3334 34.9999V20.9999C11.3334 18.4362 12.3518 15.9774 14.1647 14.1646C15.9775 12.3517 18.4363 11.3333 21 11.3333ZM20.6667 14.6666C19.0754 14.6666 17.5493 15.2987 16.4241 16.4239C15.2988 17.5492 14.6667 19.0753 14.6667 20.6666V35.3333C14.6667 38.6499 17.35 41.3333 20.6667 41.3333H35.3334C36.9247 41.3333 38.4508 40.7011 39.576 39.5759C40.7012 38.4507 41.3334 36.9245 41.3334 35.3333V20.6666C41.3334 17.3499 38.65 14.6666 35.3334 14.6666H20.6667ZM36.75 17.1666C37.3026 17.1666 37.8325 17.3861 38.2232 17.7768C38.6139 18.1675 38.8334 18.6974 38.8334 19.2499C38.8334 19.8025 38.6139 20.3324 38.2232 20.7231C37.8325 21.1138 37.3026 21.3333 36.75 21.3333C36.1975 21.3333 35.6676 21.1138 35.2769 20.7231C34.8862 20.3324 34.6667 19.8025 34.6667 19.2499C34.6667 18.6974 34.8862 18.1675 35.2769 17.7768C35.6676 17.3861 36.1975 17.1666 36.75 17.1666ZM28 19.6666C30.2102 19.6666 32.3298 20.5446 33.8926 22.1074C35.4554 23.6702 36.3334 25.7898 36.3334 27.9999C36.3334 30.2101 35.4554 32.3297 33.8926 33.8925C32.3298 35.4553 30.2102 36.3333 28 36.3333C25.7899 36.3333 23.6703 35.4553 22.1075 33.8925C20.5447 32.3297 19.6667 30.2101 19.6667 27.9999C19.6667 25.7898 20.5447 23.6702 22.1075 22.1074C23.6703 20.5446 25.7899 19.6666 28 19.6666ZM28 22.9999C26.674 22.9999 25.4022 23.5267 24.4645 24.4644C23.5268 25.4021 23 26.6738 23 27.9999C23 29.326 23.5268 30.5978 24.4645 31.5355C25.4022 32.4731 26.674 32.9999 28 32.9999C29.3261 32.9999 30.5979 32.4731 31.5356 31.5355C32.4733 30.5978 33 29.326 33 27.9999C33 26.6738 32.4733 25.4021 31.5356 24.4644C30.5979 23.5267 29.3261 22.9999 28 22.9999Z" fill="currentColor"/>
</svg>
