<svg width="177" height="305" viewBox="0 0 177 305" fill="none" xmlns="http://www.w3.org/2000/svg">
<rect x="0.635742" y="0.209961" width="16" height="16" rx="8" fill="#8C1D1D" fill-opacity="0.4"/>
<rect x="32.6357" y="0.209961" width="16" height="16" rx="8" fill="#8C1D1D" fill-opacity="0.4"/>
<rect x="64.6357" y="0.209961" width="16" height="16" rx="8" fill="#8C1D1D" fill-opacity="0.4"/>
<rect x="96.6357" y="0.209961" width="16" height="16" rx="8" fill="#8C1D1D" fill-opacity="0.4"/>
<rect x="128.636" y="0.209961" width="16" height="16" rx="8" fill="#8C1D1D" fill-opacity="0.4"/>
<rect x="160.636" y="0.209961" width="16" height="16" rx="8" fill="#8C1D1D" fill-opacity="0.4"/>
<rect x="0.635742" y="32.21" width="16" height="16" rx="8" fill="#8C1D1D" fill-opacity="0.4"/>
<rect x="32.6357" y="32.21" width="16" height="16" rx="8" fill="#8C1D1D" fill-opacity="0.4"/>
<rect x="64.6357" y="32.21" width="16" height="16" rx="8" fill="#8C1D1D" fill-opacity="0.4"/>
<rect x="96.6357" y="32.21" width="16" height="16" rx="8" fill="#8C1D1D" fill-opacity="0.4"/>
<rect x="128.636" y="32.21" width="16" height="16" rx="8" fill="#8C1D1D" fill-opacity="0.4"/>
<rect x="160.636" y="32.21" width="16" height="16" rx="8" fill="#8C1D1D" fill-opacity="0.4"/>
<rect x="0.635742" y="64.21" width="16" height="16" rx="8" fill="#8C1D1D" fill-opacity="0.4"/>
<rect x="32.6357" y="64.21" width="16" height="16" rx="8" fill="#8C1D1D" fill-opacity="0.4"/>
<rect x="64.6357" y="64.21" width="16" height="16" rx="8" fill="#8C1D1D" fill-opacity="0.4"/>
<rect x="96.6357" y="64.21" width="16" height="16" rx="8" fill="#8C1D1D" fill-opacity="0.4"/>
<rect x="128.636" y="64.21" width="16" height="16" rx="8" fill="#8C1D1D" fill-opacity="0.4"/>
<rect x="160.636" y="64.21" width="16" height="16" rx="8" fill="#8C1D1D" fill-opacity="0.4"/>
<rect x="0.635742" y="96.21" width="16" height="16" rx="8" fill="#8C1D1D" fill-opacity="0.4"/>
<rect x="32.6357" y="96.21" width="16" height="16" rx="8" fill="#8C1D1D" fill-opacity="0.4"/>
<rect x="64.6357" y="96.21" width="16" height="16" rx="8" fill="#8C1D1D" fill-opacity="0.4"/>
<rect x="96.6357" y="96.21" width="16" height="16" rx="8" fill="#8C1D1D" fill-opacity="0.4"/>
<rect x="128.636" y="96.21" width="16" height="16" rx="8" fill="#8C1D1D" fill-opacity="0.4"/>
<rect x="160.636" y="96.21" width="16" height="16" rx="8" fill="#8C1D1D" fill-opacity="0.4"/>
<rect x="0.635742" y="128.21" width="16" height="16" rx="8" fill="#8C1D1D" fill-opacity="0.4"/>
<rect x="32.6357" y="128.21" width="16" height="16" rx="8" fill="#8C1D1D" fill-opacity="0.4"/>
<rect x="64.6357" y="128.21" width="16" height="16" rx="8" fill="#8C1D1D" fill-opacity="0.4"/>
<rect x="96.6357" y="128.21" width="16" height="16" rx="8" fill="#8C1D1D" fill-opacity="0.4"/>
<rect x="128.636" y="128.21" width="16" height="16" rx="8" fill="#8C1D1D" fill-opacity="0.4"/>
<rect x="160.636" y="128.21" width="16" height="16" rx="8" fill="#8C1D1D" fill-opacity="0.4"/>
<rect x="0.635742" y="160.21" width="16" height="16" rx="8" fill="#8C1D1D" fill-opacity="0.4"/>
<rect x="32.6357" y="160.21" width="16" height="16" rx="8" fill="#8C1D1D" fill-opacity="0.4"/>
<rect x="64.6357" y="160.21" width="16" height="16" rx="8" fill="#8C1D1D" fill-opacity="0.4"/>
<rect x="96.6357" y="160.21" width="16" height="16" rx="8" fill="#8C1D1D" fill-opacity="0.4"/>
<rect x="128.636" y="160.21" width="16" height="16" rx="8" fill="#8C1D1D" fill-opacity="0.4"/>
<rect x="160.636" y="160.21" width="16" height="16" rx="8" fill="#8C1D1D" fill-opacity="0.4"/>
<rect x="0.635742" y="192.21" width="16" height="16" rx="8" fill="#8C1D1D" fill-opacity="0.4"/>
<rect x="32.6357" y="192.21" width="16" height="16" rx="8" fill="#8C1D1D" fill-opacity="0.4"/>
<rect x="64.6357" y="192.21" width="16" height="16" rx="8" fill="#8C1D1D" fill-opacity="0.4"/>
<rect x="96.6357" y="192.21" width="16" height="16" rx="8" fill="#8C1D1D" fill-opacity="0.4"/>
<rect x="128.636" y="192.21" width="16" height="16" rx="8" fill="#8C1D1D" fill-opacity="0.4"/>
<rect x="160.636" y="192.21" width="16" height="16" rx="8" fill="#8C1D1D" fill-opacity="0.4"/>
<rect x="0.635742" y="224.21" width="16" height="16" rx="8" fill="#8C1D1D" fill-opacity="0.4"/>
<rect x="32.6357" y="224.21" width="16" height="16" rx="8" fill="#8C1D1D" fill-opacity="0.4"/>
<rect x="64.6357" y="224.21" width="16" height="16" rx="8" fill="#8C1D1D" fill-opacity="0.4"/>
<rect x="96.6357" y="224.21" width="16" height="16" rx="8" fill="#8C1D1D" fill-opacity="0.4"/>
<rect x="128.636" y="224.21" width="16" height="16" rx="8" fill="#8C1D1D" fill-opacity="0.4"/>
<rect x="160.636" y="224.21" width="16" height="16" rx="8" fill="#8C1D1D" fill-opacity="0.4"/>
<rect x="0.635742" y="256.21" width="16" height="16" rx="8" fill="#8C1D1D" fill-opacity="0.4"/>
<rect x="32.6357" y="256.21" width="16" height="16" rx="8" fill="#8C1D1D" fill-opacity="0.4"/>
<rect x="64.6357" y="256.21" width="16" height="16" rx="8" fill="#8C1D1D" fill-opacity="0.4"/>
<rect x="96.6357" y="256.21" width="16" height="16" rx="8" fill="#8C1D1D" fill-opacity="0.4"/>
<rect x="128.636" y="256.21" width="16" height="16" rx="8" fill="#8C1D1D" fill-opacity="0.4"/>
<rect x="160.636" y="256.21" width="16" height="16" rx="8" fill="#8C1D1D" fill-opacity="0.4"/>
<rect x="0.635742" y="288.21" width="16" height="16" rx="8" fill="#8C1D1D" fill-opacity="0.4"/>
<rect x="32.6357" y="288.21" width="16" height="16" rx="8" fill="#8C1D1D" fill-opacity="0.4"/>
<rect x="64.6357" y="288.21" width="16" height="16" rx="8" fill="#8C1D1D" fill-opacity="0.4"/>
<rect x="96.6357" y="288.21" width="16" height="16" rx="8" fill="#8C1D1D" fill-opacity="0.4"/>
<rect x="128.636" y="288.21" width="16" height="16" rx="8" fill="#8C1D1D" fill-opacity="0.4"/>
<rect x="160.636" y="288.21" width="16" height="16" rx="8" fill="#8C1D1D" fill-opacity="0.4"/>
</svg>
