<svg width="177" height="209" viewBox="0 0 177 209" fill="none" xmlns="http://www.w3.org/2000/svg">
<rect x="0.918701" y="0.2323" width="16" height="16" rx="8" fill="#8C1D1D" fill-opacity="0.4"/>
<rect x="32.9187" y="0.2323" width="16" height="16" rx="8" fill="#8C1D1D" fill-opacity="0.4"/>
<rect x="64.9187" y="0.2323" width="16" height="16" rx="8" fill="#8C1D1D" fill-opacity="0.4"/>
<rect x="96.9187" y="0.2323" width="16" height="16" rx="8" fill="#8C1D1D" fill-opacity="0.4"/>
<rect x="128.919" y="0.2323" width="16" height="16" rx="8" fill="#8C1D1D" fill-opacity="0.4"/>
<rect x="160.919" y="0.2323" width="16" height="16" rx="8" fill="#8C1D1D" fill-opacity="0.4"/>
<rect x="0.918701" y="32.2323" width="16" height="16" rx="8" fill="#8C1D1D" fill-opacity="0.4"/>
<rect x="32.9187" y="32.2323" width="16" height="16" rx="8" fill="#8C1D1D" fill-opacity="0.4"/>
<rect x="64.9187" y="32.2323" width="16" height="16" rx="8" fill="#8C1D1D" fill-opacity="0.4"/>
<rect x="96.9187" y="32.2323" width="16" height="16" rx="8" fill="#8C1D1D" fill-opacity="0.4"/>
<rect x="128.919" y="32.2323" width="16" height="16" rx="8" fill="#8C1D1D" fill-opacity="0.4"/>
<rect x="160.919" y="32.2323" width="16" height="16" rx="8" fill="#8C1D1D" fill-opacity="0.4"/>
<rect x="0.918701" y="64.2323" width="16" height="16" rx="8" fill="#8C1D1D" fill-opacity="0.4"/>
<rect x="32.9187" y="64.2323" width="16" height="16" rx="8" fill="#8C1D1D" fill-opacity="0.4"/>
<rect x="64.9187" y="64.2323" width="16" height="16" rx="8" fill="#8C1D1D" fill-opacity="0.4"/>
<rect x="96.9187" y="64.2323" width="16" height="16" rx="8" fill="#8C1D1D" fill-opacity="0.4"/>
<rect x="128.919" y="64.2323" width="16" height="16" rx="8" fill="#8C1D1D" fill-opacity="0.4"/>
<rect x="160.919" y="64.2323" width="16" height="16" rx="8" fill="#8C1D1D" fill-opacity="0.4"/>
<rect x="0.918701" y="96.2323" width="16" height="16" rx="8" fill="#8C1D1D" fill-opacity="0.4"/>
<rect x="32.9187" y="96.2323" width="16" height="16" rx="8" fill="#8C1D1D" fill-opacity="0.4"/>
<rect x="64.9187" y="96.2323" width="16" height="16" rx="8" fill="#8C1D1D" fill-opacity="0.4"/>
<rect x="96.9187" y="96.2323" width="16" height="16" rx="8" fill="#8C1D1D" fill-opacity="0.4"/>
<rect x="128.919" y="96.2323" width="16" height="16" rx="8" fill="#8C1D1D" fill-opacity="0.4"/>
<rect x="160.919" y="96.2323" width="16" height="16" rx="8" fill="#8C1D1D" fill-opacity="0.4"/>
<rect x="0.918701" y="128.232" width="16" height="16" rx="8" fill="#8C1D1D" fill-opacity="0.4"/>
<rect x="32.9187" y="128.232" width="16" height="16" rx="8" fill="#8C1D1D" fill-opacity="0.4"/>
<rect x="64.9187" y="128.232" width="16" height="16" rx="8" fill="#8C1D1D" fill-opacity="0.4"/>
<rect x="96.9187" y="128.232" width="16" height="16" rx="8" fill="#8C1D1D" fill-opacity="0.4"/>
<rect x="128.919" y="128.232" width="16" height="16" rx="8" fill="#8C1D1D" fill-opacity="0.4"/>
<rect x="160.919" y="128.232" width="16" height="16" rx="8" fill="#8C1D1D" fill-opacity="0.4"/>
<rect x="0.918701" y="160.232" width="16" height="16" rx="8" fill="#8C1D1D" fill-opacity="0.4"/>
<rect x="32.9187" y="160.232" width="16" height="16" rx="8" fill="#8C1D1D" fill-opacity="0.4"/>
<rect x="64.9187" y="160.232" width="16" height="16" rx="8" fill="#8C1D1D" fill-opacity="0.4"/>
<rect x="96.9187" y="160.232" width="16" height="16" rx="8" fill="#8C1D1D" fill-opacity="0.4"/>
<rect x="128.919" y="160.232" width="16" height="16" rx="8" fill="#8C1D1D" fill-opacity="0.4"/>
<rect x="160.919" y="160.232" width="16" height="16" rx="8" fill="#8C1D1D" fill-opacity="0.4"/>
<rect x="0.918701" y="192.232" width="16" height="16" rx="8" fill="#8C1D1D" fill-opacity="0.4"/>
<rect x="32.9187" y="192.232" width="16" height="16" rx="8" fill="#8C1D1D" fill-opacity="0.4"/>
<rect x="64.9187" y="192.232" width="16" height="16" rx="8" fill="#8C1D1D" fill-opacity="0.4"/>
<rect x="96.9187" y="192.232" width="16" height="16" rx="8" fill="#8C1D1D" fill-opacity="0.4"/>
<rect x="128.919" y="192.232" width="16" height="16" rx="8" fill="#8C1D1D" fill-opacity="0.4"/>
<rect x="160.919" y="192.232" width="16" height="16" rx="8" fill="#8C1D1D" fill-opacity="0.4"/>
</svg>
